<svg xmlns="http://www.w3.org/2000/svg" xmlns:xlink="http://www.w3.org/1999/xlink" version="1.1" id="Layer_1" x="0px" y="0px" width="60px" height="56px" viewBox="0 0 60 56" enable-background="new 0 0 60 56" xml:space="preserve">
<rect y="63" width="60" height="56"/>
<rect fill="none" width="56" height="56"/>
<path d="M57.384,2.212H21.709C21.318,2.212,21,2.536,21,2.937v15.865c-0.597-0.198-0.832-0.277-0.832-0.277s-0.53-0.174-2.091-0.69  c-3.246-1.074-6.311-1.733-7.443,1.688c-1.029,3.109-7.711,23.304-8.272,25C1.321,47.671,3.9,49.541,6.286,50.33  c2.383,0.789,3.026,1.002,3.026,1.002s0.642,0.212,3.028,1.001c2.385,0.789,5.57,0.827,6.612-2.322  c0.18-0.545,0.994-3.005,2.048-6.19v8.125c0,0.398,0.318,0.724,0.71,0.724h35.675c0.391,0,0.709-0.323,0.709-0.724V2.937  C58.094,2.536,57.775,2.212,57.384,2.212z M39.988,4.139c0.521,0,0.945,0.432,0.945,0.964c0,0.532-0.425,0.964-0.945,0.964  c-0.521,0-0.942-0.432-0.942-0.964C39.046,4.57,39.468,4.139,39.988,4.139z M17.249,19.036l4.916,1.626  c0.115,0.038,0.18,0.164,0.142,0.28c-0.039,0.118-0.167,0.181-0.244,0.155l-4.917-1.627c-0.152-0.05-0.217-0.177-0.178-0.294  C17.006,19.06,17.134,18.997,17.249,19.036z M11.83,50.017c-0.045,0.137-0.303,0.709-0.889,0.517  c-0.546-0.181-1.229-0.408-1.229-0.408S9.029,49.9,8.484,49.72c-0.588-0.194-0.454-0.807-0.408-0.945  c0.076-0.229,0.323-0.207,0.797-0.05c0.471,0.156,1.174,0.389,1.174,0.389s0.703,0.233,1.175,0.39  C11.694,49.66,11.905,49.788,11.83,50.017z M17.886,49.824L3.329,45.009l8.537-25.799l14.557,4.816L17.886,49.824z M39.546,50.802  c-0.599,0-1.085-0.495-1.085-1.106c0-0.61,0.484-1.106,1.085-1.106s1.085,0.496,1.085,1.106  C40.631,50.307,40.146,50.802,39.546,50.802z M55.938,45.941c0,0.4-0.316,0.724-0.709,0.724H23.865  c-0.392,0-0.709-0.322-0.709-0.724v-8.638c1.79-5.41,3.575-10.804,4.067-12.292c1.025-3.1-1.221-4.456-4.067-5.483V7.917  c0-0.4,0.317-0.724,0.709-0.724h31.363c0.392,0,0.709,0.324,0.709,0.724V45.941z"/>
</svg>